<?xml version="1.0" encoding="utf-8"?>
<!-- Generator: Adobe Illustrator 26.0.1, SVG Export Plug-In . SVG Version: 6.00 Build 0)  -->
<svg version="1.1" id="Lager_1" xmlns="http://www.w3.org/2000/svg" xmlns:xlink="http://www.w3.org/1999/xlink" x="0px" y="0px"
	 viewBox="0 0 515.2 202.8" style="enable-background:new 0 0 515.2 202.8;" xml:space="preserve">
<style type="text/css">
	.st0{fill:#00F0AF;}
	.st1{fill:#FA1996;}
	.st2{fill:#23C3FF;}
	.st3{fill:#FFCD32;}
	.st4{fill:#00BE5F;}
	.st5{fill:#870AA0;}
	.st6{fill:#2819FF;}
	.st7{fill:#FF5F0A;}
	.st8{fill:none;}
</style>
<g id="Lager_3">
	<g>
		<g>
			<rect x="159.4" y="92.7" class="st5" width="34.2" height="105.4"/>
		</g>
		<g>
			<rect x="159.4" y="11.4" class="st1" width="34.2" height="81.3"/>
		</g>
		<g>
			<rect x="102.4" y="65.6" class="st5" width="34.2" height="132.5"/>
		</g>
		<g>
			<rect x="219.3" y="65.6" class="st5" width="34.2" height="132.5"/>
		</g>
		<g>
			<rect x="310.5" y="134.9" class="st1" width="34.2" height="63.2"/>
		</g>
		<g>
			<rect x="401.7" y="134.9" class="st1" width="34.2" height="63.2"/>
		</g>
		<g>
			<rect x="458.7" y="168" class="st1" width="34.2" height="30.1"/>
		</g>
		<g>
			<rect x="458.7" y="116.8" class="st7" width="34.2" height="51.2"/>
		</g>
		<g>
			<rect x="458.7" y="65.6" class="st1" width="34.2" height="51.2"/>
		</g>
		<g>
			<path class="st1" d="M474.4,11.4C462.6,11.4,453,21.5,453,34s9.6,22.6,21.4,22.6s21.4-10.1,21.4-22.6S486.2,11.4,474.4,11.4
				L474.4,11.4z"/>
		</g>
		<g>
			<path class="st1" d="M73.9,101.8c15.7,0,28.5,13.5,28.5,30.1S89.6,162,73.9,162s-28.5-13.5-28.5-30.1S58.1,101.8,73.9,101.8
				 M73.9,65.6c-34.6,0-62.7,29.7-62.7,66.3s28.1,66.2,62.7,66.2s62.7-29.7,62.7-66.3S108.5,65.6,73.9,65.6L73.9,65.6z"/>
		</g>
		<g>
			<path class="st5" d="M435.9,134.9h-34.2c0-18.3-12.8-33.1-28.5-33.1c-15.7,0-28.5,14.9-28.5,33.1h-34.2
				c0-38.2,28.1-69.3,62.7-69.3C407.8,65.6,435.9,96.7,435.9,134.9z"/>
		</g>
		<g>
			<path class="st7" d="M344.7,134.9h-34.2c0-18.3-12.8-33.1-28.5-33.1s-28.5,14.9-28.5,33.1h-34.2c0-38.2,28.1-69.3,62.7-69.3
				C316.6,65.6,344.7,96.7,344.7,134.9z"/>
		</g>
	</g>
</g>
</svg>
